<?xml version="1.0" encoding="UTF-8"?>
<svg version="1.1" xmlns="http://www.w3.org/2000/svg" width="680" height="269">
<path d="M0 0 C224.4 0 448.8 0 680 0 C680 88.77 680 177.54 680 269 C455.6 269 231.2 269 0 269 C0 180.23 0 91.46 0 0 Z " fill="#FEFEFE" transform="translate(0,0)"/>
<path d="M0 0 C26.73 0 53.46 0 81 0 C85.95 8.91 85.95 8.91 91 18 C92.7978828 21.11587096 94.59735374 24.22267887 96.4375 27.3125 C96.84419922 28.00021484 97.25089844 28.68792969 97.66992188 29.39648438 C99.34956136 32.23411921 101.03700101 35.05918543 102.78515625 37.85546875 C104 40 104 40 104 42 C104.66 42 105.32 42 106 42 C106.226875 41.19175781 106.45375 40.38351563 106.6875 39.55078125 C108.32972659 35.10797181 110.58690899 31.25076884 113 27.1875 C113.43183594 26.45080078 113.86367187 25.71410156 114.30859375 24.95507812 C115.24518268 23.35916243 116.20234962 21.77518213 117.17752075 20.20254517 C118.58310268 17.73259133 119.72823207 15.38503778 120.85372925 12.79220581 C126.11160647 1.42455192 126.11160647 1.42455192 130.93250275 -0.95310783 C136.44368746 -2.38721235 142.06241488 -1.95333034 147.6953125 -1.66015625 C149.4969441 -1.62839943 151.29872377 -1.60422388 153.10055542 -1.58726501 C157.81630538 -1.52271318 162.52297819 -1.35614526 167.23516846 -1.16729736 C172.05396664 -0.99254761 176.87425113 -0.91557729 181.6953125 -0.83007812 C191.13417177 -0.64841011 200.56632803 -0.35879138 210 0 C210 0.99 210 1.98 210 3 C209.34 3 208.68 3 208 3 C207.75894531 3.66128906 207.51789063 4.32257812 207.26953125 5.00390625 C205.65956419 8.80342851 203.70329612 12.3403534 201.6875 15.9375 C201.25163574 16.71891357 200.81577148 17.50032715 200.36669922 18.30541992 C196.34618634 25.46841074 192.16774954 32.53493182 187.97070312 39.59545898 C182.19164772 49.32766671 176.58872561 59.15764503 171 69 C165.61111866 78.48767481 160.13664697 87.92238028 154.62988281 97.34204102 C150.17986306 104.95996128 145.77183589 112.6012905 141.375 120.25 C136.32297242 129.03553865 131.17570171 137.75525267 125.93188477 146.42749023 C122.98848239 151.30860307 120.1814517 156.23444426 117.5078125 161.26953125 C115.12868338 165.57785056 112.55636415 169.77029518 109.98168945 173.96411133 C108.35968151 176.62620154 106.98964306 179.03107081 106 182 C105.34 182 104.68 182 104 182 C103.6376123 181.35562988 103.27522461 180.71125977 102.90185547 180.04736328 C101.22768637 177.07242391 99.55135506 174.09870811 97.875 171.125 C97.30523437 170.11179688 96.73546875 169.09859375 96.1484375 168.0546875 C92.89413021 162.28568821 89.56955689 156.58121211 86.07080078 150.95654297 C85 149 85 149 85 147 C84.34 147 83.68 147 83 147 C82.54173828 146.03126953 82.54173828 146.03126953 82.07421875 145.04296875 C77.22698192 135.06175713 71.62092523 125.55953688 66 116 C65.35530762 114.90349121 64.71061523 113.80698242 64.04638672 112.67724609 C63.70694031 112.0999173 63.3674939 111.5225885 63.01776123 110.92776489 C61.58612618 108.49250811 60.1549642 106.05697384 58.72418213 103.62121582 C57.99123945 102.37347543 57.25812575 101.12583547 56.52484131 99.8782959 C51.01495797 90.50033071 45.59590459 81.07592554 40.28564453 71.58300781 C37.46087443 66.54074099 34.55334327 61.56205672 31.56518555 56.61499023 C28.64651131 51.73869641 25.83068454 46.80270949 23 41.875 C19.01121886 34.93542167 15.01202675 28.00364942 10.9453125 21.109375 C10.30335937 20.01898926 9.66140625 18.92860352 9 17.80517578 C7.77235952 15.72298244 6.54073679 13.64313063 5.3046875 11.56591797 C4.75296875 10.62893066 4.20125 9.69194336 3.6328125 8.7265625 C3.14699707 7.90752441 2.66118164 7.08848633 2.16064453 6.24462891 C1 4 1 4 0 0 Z " fill="#43B685" transform="translate(17,39)"/>
<path d="M0 0 C5.44399863 -0.24790522 10.88469408 -0.42894892 16.33300781 -0.54931641 C18.18417589 -0.59949672 20.03494965 -0.66766395 21.88476562 -0.75439453 C37.20652825 -1.45458261 37.20652825 -1.45458261 41.38769531 1.93652344 C42.97237785 4.56810032 43.98510366 7.10484275 45 10 C45.89284385 11.61318084 46.81971819 13.20804336 47.78125 14.78125 C48.68824621 16.35373649 49.59448959 17.92665744 50.5 19.5 C53.94491601 25.47957809 57.42084695 31.42947018 61.07421875 37.28515625 C62 39 62 39 62 41 C62.66 41 63.32 41 64 41 C64.22558594 40.19304687 64.45117188 39.38609375 64.68359375 38.5546875 C66.33888438 34.08491162 68.62722974 30.20953605 71.0625 26.125 C76.16870132 17.48258604 81.07550826 8.75465199 86 0 C99.2 0 112.4 0 126 0 C123.36 4.62 120.72 9.24 118 14 C116.53812256 16.60233231 115.07908457 19.20586246 113.625 21.8125 C108.45593176 31.03627181 103.07029591 40.12977451 97.68115234 49.22607422 C91.7008684 59.28337241 91.7008684 59.28337241 86 69.5 C82.29815936 76.38229527 78.29334041 83.08561347 74.30224609 89.80273438 C73.00314905 91.99468665 71.71380921 94.19215401 70.42578125 96.390625 C69.61748709 97.76059347 68.80890572 99.13039254 68 100.5 C67.62641357 101.14098633 67.25282715 101.78197266 66.86791992 102.44238281 C64.22766766 106.88616617 64.22766766 106.88616617 62 108 C61.7097998 107.48953125 61.41959961 106.9790625 61.12060547 106.453125 C54.46485649 94.75435624 47.74265307 83.09690927 40.94628906 71.47924805 C37.80622168 66.10847188 34.68999191 60.72643696 31.625 55.3125 C29.13007183 50.91972049 26.54165521 46.60320839 23.875 42.3125 C20.88219317 37.49595151 18.10585305 32.61120124 15.4296875 27.61328125 C14.01716742 25.0313798 12.5285921 22.51465281 11 20 C7.04811895 13.48979595 3.39204557 6.81833602 0 0 Z " fill="#32495C" transform="translate(59,40)"/>
<path d="M0 0 C2.875 2.5 2.875 2.5 5 5 C5.495 5.495 5.495 5.495 6 6 C6.28048753 9.38752444 6.2318666 12.78975327 6.25 16.1875 C6.270625 17.13431641 6.29125 18.08113281 6.3125 19.05664062 C6.34271924 24.46966235 6.07791772 28.33829938 3 33 C-0.91418937 36.54723412 -4.32545029 37.13891008 -9.5 37.125 C-10.4590625 37.12757813 -11.418125 37.13015625 -12.40625 37.1328125 C-15 37 -15 37 -18 36 C-18 40.62 -18 45.24 -18 50 C-21.96 50 -25.92 50 -30 50 C-30 33.5 -30 17 -30 0 C-26.04 0 -22.08 0 -18 0 C-18 2.31 -18 4.62 -18 7 C-17.01 7 -16.02 7 -15 7 C-14.79375 6.236875 -14.5875 5.47375 -14.375 4.6875 C-11.32260371 -1.27854729 -5.98375769 -1.74072951 0 0 Z " fill="#32485C" transform="translate(587,129)"/>
<path d="M0 0 C3.70390021 2.02666238 5.65363011 3.48044516 8 7 C8.48347554 10.37893546 8.41646589 13.77763688 8.4375 17.1875 C8.47037109 18.10853516 8.50324219 19.02957031 8.53710938 19.97851562 C8.58718936 26.39330606 7.4899971 31.21599279 3 36 C-0.60143844 38.19322653 -3.42147372 38.23968825 -7.625 38.1875 C-8.77226563 38.18105469 -9.91953125 38.17460937 -11.1015625 38.16796875 C-14 38 -14 38 -16 37 C-16 41.29 -16 45.58 -16 50 C-19.96 50 -23.92 50 -28 50 C-28 33.83 -28 17.66 -28 1 C-24.04 1 -20.08 1 -16 1 C-16 3.31 -16 5.62 -16 8 C-15.2575 7.236875 -14.515 6.47375 -13.75 5.6875 C-9.02776721 1.07259069 -6.8956761 -0.83223677 0 0 Z " fill="#314559" transform="translate(629,128)"/>
<path d="M0 0 C4.29 0 8.58 0 13 0 C15.64 12.54 18.28 25.08 21 38 C23.60951985 27.57716315 23.60951985 27.57716315 26.1953125 17.1484375 C26.50210938 15.90320313 26.80890625 14.65796875 27.125 13.375 C27.43695313 12.10398438 27.74890625 10.83296875 28.0703125 9.5234375 C28.92253689 6.29357869 29.90333916 3.15411305 31 0 C34.63 0 38.26 0 42 0 C40.89926284 7.80522712 39.20574846 15.20272015 37.03955078 22.76074219 C34.46116103 31.78226459 32.23508451 40.88846401 30 50 C24.39 50 18.78 50 13 50 C11.4694707 44.16519136 9.93954257 38.33022553 8.41015625 32.49511719 C7.89046225 30.51265264 7.37060784 28.53023013 6.85058594 26.54785156 C6.10048286 23.68826321 5.35096863 20.82852106 4.6015625 17.96875 C4.3712735 17.09134155 4.1409845 16.21393311 3.90371704 15.30993652 C2.56916265 10.21453177 1.26776196 5.11244416 0 0 Z " fill="#33495D" transform="translate(204,116)"/>
<path d="M0 0 C3.17099187 1.79288148 6.21335995 3.61083238 7.25390625 7.21484375 C7.820034 11.29635521 8.0285039 15.37060054 8.2265625 19.484375 C8.26974609 20.32033203 8.31292969 21.15628906 8.35742188 22.01757812 C8.46291557 24.06884435 8.56393565 26.1203398 8.6640625 28.171875 C10.3140625 28.501875 11.9640625 28.831875 13.6640625 29.171875 C13.6640625 31.811875 13.6640625 34.451875 13.6640625 37.171875 C6.33072917 37.53854167 6.33072917 37.53854167 3.1640625 35.796875 C1.6640625 34.171875 1.6640625 34.171875 1.6640625 32.171875 C-1.39836503 33.28548501 -3.83822633 34.50029462 -6.5859375 36.296875 C-10.73274576 38.69100178 -14.65183381 39.18350538 -19.3359375 38.171875 C-22.39941552 36.43867554 -24.73747764 34.36879471 -26.3359375 31.171875 C-27.0327438 24.08767757 -27.0327438 24.08767757 -24.1484375 20.296875 C-19.46112331 16.75534872 -15.86902923 15.91840046 -10.0234375 16.046875 C-8.95480469 16.06492188 -7.88617187 16.08296875 -6.78515625 16.1015625 C-5.97691406 16.12476563 -5.16867187 16.14796875 -4.3359375 16.171875 C-4.3359375 13.531875 -4.3359375 10.891875 -4.3359375 8.171875 C-5.79539038 8.25896169 -7.25359618 8.36714407 -8.7109375 8.484375 C-9.92910156 8.57138672 -9.92910156 8.57138672 -11.171875 8.66015625 C-13.71515088 9.00178028 -13.71515088 9.00178028 -15.3359375 12.171875 C-18.0786883 12.64302238 -20.53152647 12.34993284 -23.3359375 12.171875 C-24.3359375 11.171875 -24.3359375 11.171875 -24.7109375 8.921875 C-24.17544346 4.99491873 -22.31206934 3.67453132 -19.3359375 1.171875 C-13.94033973 -2.23150205 -5.89562033 -2.09008614 0 0 Z " fill="#344A5D" transform="translate(538.3359375,128.828125)"/>
<path d="M0 0 C0.69931641 -0.020625 1.39863281 -0.04125 2.11914062 -0.0625 C6.91773282 -0.09841089 10.12357284 0.71155292 14.1875 3.25 C20.11874451 9.82246014 19.1875 10.93070779 19.1875 21.25 C11.2675 21.25 3.3475 21.25 -4.8125 21.25 C-4.6125 27.65 -4.6125 27.65 -2.8125 29.25 C2.5542146 29.88945157 2.5542146 29.88945157 7.12109375 27.68359375 C9.1875 26.25 9.1875 26.25 11.765625 26.39453125 C12.64734375 26.61496094 13.5290625 26.83539063 14.4375 27.0625 C15.32953125 27.27519531 16.2215625 27.48789063 17.140625 27.70703125 C17.81609375 27.88621094 18.4915625 28.06539062 19.1875 28.25 C18.37148394 32.48973563 16.77144692 33.80639982 13.1875 36.25 C6.88004601 39.27930895 -0.57868768 39.42162102 -7.296875 37.5625 C-12.0317295 35.42647541 -14.35419709 32.92972439 -16.8125 28.25 C-17.4243005 24.92249909 -17.4624552 21.68893902 -17.4375 18.3125 C-17.46972656 17.44431641 -17.50195312 16.57613281 -17.53515625 15.68164062 C-17.54393933 9.87163624 -16.39195533 6.75986584 -12.39599609 2.52514648 C-8.75597376 -0.40606484 -4.43287048 0.03215137 0 0 Z " fill="#35495D" transform="translate(311.8125,128.75)"/>
<path d="M0 0 C3.96 0 7.92 0 12 0 C12.33 9.24 12.66 18.48 13 28 C20.48550424 26.85749293 20.48550424 26.85749293 23 24 C23.37135915 21.47962036 23.37135915 21.47962036 23.4140625 18.5546875 C23.45273437 17.47832031 23.49140625 16.40195313 23.53125 15.29296875 C23.57765625 13.60107422 23.57765625 13.60107422 23.625 11.875 C23.66367187 10.73933594 23.70234375 9.60367188 23.7421875 8.43359375 C23.83667233 5.62267013 23.91943321 2.81135696 24 0 C27.96 0 31.92 0 36 0 C36 12.21 36 24.42 36 37 C32.04 37 28.08 37 24 37 C24 34.69 24 32.38 24 30 C23.01 30 22.02 30 21 30 C20.7525 30.78375 20.505 31.5675 20.25 32.375 C18.78205935 35.45767536 18.10007034 35.79471871 15 37 C12.59765625 37.40625 12.59765625 37.40625 10.0625 37.5 C9.22847656 37.5515625 8.39445312 37.603125 7.53515625 37.65625 C3.80093697 36.6896108 1.91452626 34.20309923 0 31 C-0.56762695 27.47314453 -0.56762695 27.47314453 -0.48828125 23.6328125 C-0.48120651 22.95322479 -0.47413177 22.27363708 -0.46684265 21.57345581 C-0.43906147 19.42280539 -0.37636888 17.27485043 -0.3125 15.125 C-0.28739541 13.65889203 -0.26458602 12.19274285 -0.24414062 10.7265625 C-0.18929288 7.15017977 -0.1031413 3.57535336 0 0 Z " fill="#31465B" transform="translate(251,129)"/>
<path d="M0 0 C9.24 0 18.48 0 28 0 C28.13814834 5.7126897 28.25744952 11.41953573 28.32958984 17.13256836 C28.35967215 19.07352382 28.40054963 21.01434436 28.45263672 22.95483398 C28.52583255 25.75278065 28.55954101 28.54892336 28.5859375 31.34765625 C28.61690521 32.2083522 28.64787292 33.06904816 28.67977905 33.95582581 C28.68291182 39.62650912 27.48327692 42.54772034 23.56732178 46.66847229 C18.80404275 50.71514484 13.01596835 50.254801 7.125 50.125 C5.949375 50.11146484 5.949375 50.11146484 4.75 50.09765625 C2.83319945 50.07428063 0.91655809 50.03841653 -1 50 C-1.79953138 46.71303767 -2.09658936 45.28976808 -1 42 C-0.01257813 41.95101562 0.97484375 41.90203125 1.9921875 41.8515625 C3.27351563 41.77679688 4.55484375 41.70203125 5.875 41.625 C7.78925781 41.52058594 7.78925781 41.52058594 9.7421875 41.4140625 C13.08061699 41.32758894 13.08061699 41.32758894 15 39 C15.37346668 35.79461597 15.37346668 35.79461597 15.4140625 32.0234375 C15.43342865 31.33819 15.4527948 30.6529425 15.4727478 29.94692993 C15.53256831 27.75641356 15.57893756 25.5658447 15.625 23.375 C15.66317763 21.89060198 15.70222924 20.40622616 15.7421875 18.921875 C15.83991931 15.281365 15.91946358 11.64109385 16 8 C10.72 8 5.44 8 0 8 C0 5.36 0 2.72 0 0 Z " fill="#30475B" transform="translate(384,129)"/>
<path d="M0 0 C0.6909375 -0.020625 1.381875 -0.04125 2.09375 -0.0625 C7.19852042 -0.10088173 10.67946746 0.97669847 15.25 3.25 C14.59 5.56 13.93 7.87 13.25 10.25 C12.30125 9.940625 11.3525 9.63125 10.375 9.3125 C5.74061575 7.97071729 1.04447959 7.61657993 -3.75 7.25 C-3.75 9.23 -3.75 11.21 -3.75 13.25 C-2.82058594 13.33636719 -1.89117187 13.42273438 -0.93359375 13.51171875 C12.71099291 15.06256332 12.71099291 15.06256332 17.25 20.25 C18.11792507 23.76798963 18.08425049 26.72760904 17.25 30.25 C14.70488923 33.64348103 12.16671286 35.6969382 8.25 37.25 C-0.39782726 37.98231912 -10.30481838 38.21345441 -17.75 33.25 C-16.76 29.785 -16.76 29.785 -15.75 26.25 C-15.22792969 26.4665625 -14.70585937 26.683125 -14.16796875 26.90625 C-7.906843 29.27473189 -2.402163 29.58571664 4.25 29.25 C4.25 27.6 4.25 25.95 4.25 24.25 C3.4765625 24.16363281 2.703125 24.07726562 1.90625 23.98828125 C-4.92181253 23.06716885 -10.4221356 21.8042293 -15.75 17.25 C-17.50471072 13.74057855 -16.69883623 9.9620012 -15.75 6.25 C-11.14401714 0.43191639 -7.04525833 0.05142524 0 0 Z " fill="#33485B" transform="translate(443.75,128.75)"/>
<path d="M0 0 C2.86688248 0.09096556 5.70300515 0.23767988 8.5625 0.4375 C9.36880859 0.48970703 10.17511719 0.54191406 11.00585938 0.59570312 C13.00421738 0.72577376 15.00215386 0.86229056 17 1 C16.67 1.99 16.34 2.98 16 4 C16.33 4.33 16.66 4.66 17 5 C17.45459858 7.65463121 17.70243238 10.32189138 18 13 C20.475 13.495 20.475 13.495 23 14 C23 14.33 23 14.66 23 15 C22.154375 15.2475 21.30875 15.495 20.4375 15.75 C16.89668479 16.89498878 16.89668479 16.89498878 13.6875 19.125 C9.57079352 21.53855579 5.6648937 22.00748158 1 21 C-2.06347802 19.26680054 -4.40154014 17.19691971 -6 14 C-6.50698467 8.84565588 -6.50698467 8.84565588 -6 6 C-3.5625 3.0625 -3.5625 3.0625 -1 1 C-0.67 0.67 -0.34 0.34 0 0 Z " fill="#354B5E" transform="translate(518,146)"/>
<path d="M0 0 C2.85838005 2.16121418 3.77465717 3.66691924 4.37109375 7.1953125 C4.586002 11.14180945 4.54047148 13.27937136 2.125 16.5 C-1.72984549 19.2210674 -4.27370293 19.24446364 -9 19 C-12.38031589 17.81232145 -12.93216817 17.10174775 -15 14 C-15.30078125 11.625 -15.30078125 11.625 -15.3125 9 C-15.32925781 8.13375 -15.34601563 7.2675 -15.36328125 6.375 C-14.9285785 3.53307234 -14.27415152 2.70428217 -12 1 C-7.93614072 -0.35461976 -4.24464822 -0.65125469 0 0 Z " fill="#33485D" transform="translate(362,148)"/>
<path d="M0 0 C2.47385671 2.47385671 2.28571102 3.97504228 2.32226562 7.36132812 C2.31904297 8.04646484 2.31582031 8.73160156 2.3125 9.4375 C2.32861328 10.11876953 2.34472656 10.80003906 2.36132812 11.50195312 C2.36417911 14.41280815 2.33634144 16.49244861 0.703125 18.95703125 C-2.11476654 20.68266666 -4.79331649 20.23321335 -8 20 C-8.66 19.67 -9.32 19.34 -10 19 C-10.08071788 16.20775927 -10.14035408 13.41783434 -10.1875 10.625 C-10.21263672 9.8309375 -10.23777344 9.036875 -10.26367188 8.21875 C-10.29004405 6.14413852 -10.15486462 4.06899135 -10 2 C-6.32653229 -0.44897847 -4.33643601 -0.31537716 0 0 Z " fill="#EEF4F6" transform="translate(579,138)"/>
<path d="M0 0 C2.84248495 2.84248495 2.36784921 5.63685372 2.375 9.4375 C2.41173828 10.4594043 2.41173828 10.4594043 2.44921875 11.50195312 C2.46836583 14.76014748 2.44193887 16.52689878 0.171875 18.95703125 C-2.69391356 20.33322828 -4.85944125 20.27309206 -8 20 C-8.66 19.67 -9.32 19.34 -10 19 C-10.08071788 16.20775927 -10.14035408 13.41783434 -10.1875 10.625 C-10.21263672 9.8309375 -10.23777344 9.036875 -10.26367188 8.21875 C-10.29004405 6.14413852 -10.15486462 4.06899135 -10 2 C-6.32653229 -0.44897847 -4.33643601 -0.31537716 0 0 Z " fill="#F2F5F6" transform="translate(623,138)"/>
<path d="M0 0 C0.90492188 0.02320313 1.80984375 0.04640625 2.7421875 0.0703125 C4.10730469 0.09738281 4.10730469 0.09738281 5.5 0.125 C6.19867187 0.14820313 6.89734375 0.17140625 7.6171875 0.1953125 C7.9471875 2.8353125 8.2771875 5.4753125 8.6171875 8.1953125 C11.0921875 8.6903125 11.0921875 8.6903125 13.6171875 9.1953125 C13.6171875 9.5253125 13.6171875 9.8553125 13.6171875 10.1953125 C12.7715625 10.4428125 11.9259375 10.6903125 11.0546875 10.9453125 C7.51387229 12.09030128 7.51387229 12.09030128 4.3046875 14.3203125 C0.19059393 16.81090726 -3.70537378 16.57714423 -8.3828125 16.1953125 C-8.3828125 15.5353125 -8.3828125 14.8753125 -8.3828125 14.1953125 C-6.7328125 13.5353125 -5.0828125 12.8753125 -3.3828125 12.1953125 C-3.47820313 11.49664062 -3.57359375 10.79796875 -3.671875 10.078125 C-3.78273438 9.16804687 -3.89359375 8.25796875 -4.0078125 7.3203125 C-4.12382813 6.41539062 -4.23984375 5.51046875 -4.359375 4.578125 C-4.36710938 3.79179687 -4.37484375 3.00546875 -4.3828125 2.1953125 C-2.3828125 0.1953125 -2.3828125 0.1953125 0 0 Z " fill="#374C60" transform="translate(527.3828125,150.8046875)"/>
<path d="M0 0 C0.9796875 0.00515625 1.959375 0.0103125 2.96875 0.015625 C3.9484375 0.01046875 4.928125 0.0053125 5.9375 0 C8.46875 0.265625 8.46875 0.265625 10.46875 2.265625 C10.84375 4.703125 10.84375 4.703125 10.46875 7.265625 C9.03125 9.078125 9.03125 9.078125 6.46875 10.265625 C3.43577412 10.61040379 0.49263317 10.71512115 -2.53125 10.265625 C-4.53125 8.265625 -4.53125 8.265625 -4.78125 5.265625 C-4.46522929 1.47337645 -3.85092533 0.40410945 0 0 Z " fill="#384A5A" transform="translate(402.53125,112.734375)"/>
<path d="M0 0 C0.90492188 0.02320313 1.80984375 0.04640625 2.7421875 0.0703125 C4.10730469 0.09738281 4.10730469 0.09738281 5.5 0.125 C6.19867187 0.14820313 6.89734375 0.17140625 7.6171875 0.1953125 C7.6171875 2.5053125 7.6171875 4.8153125 7.6171875 7.1953125 C3.73370266 8.48980745 0.71021414 8.32734562 -3.3828125 8.1953125 C-4.3828125 7.1953125 -4.3828125 7.1953125 -4.5703125 4.7578125 C-4.31729437 1.29989801 -3.49111259 0.28615677 0 0 Z " fill="#F6FBFC" transform="translate(527.3828125,150.8046875)"/>
<path d="M0 0 C0.8146875 0.00257813 1.629375 0.00515625 2.46875 0.0078125 C3.2834375 0.00523437 4.098125 0.00265625 4.9375 0 C6.96875 0.1328125 6.96875 0.1328125 7.96875 1.1328125 C8.00967937 3.46578683 8.01116723 5.79986475 7.96875 8.1328125 C4.33875 8.1328125 0.70875 8.1328125 -3.03125 8.1328125 C-3.07366723 5.79986475 -3.07217937 3.46578683 -3.03125 1.1328125 C-2.03125 0.1328125 -2.03125 0.1328125 0 0 Z " fill="#ECF2F4" transform="translate(310.03125,135.8671875)"/>
<path d="M0 0 C0.66 0 1.32 0 2 0 C2 13.53 2 27.06 2 41 C1.34 41 0.68 41 0 41 C-0.16721596 35.32186163 -0.32781538 29.64359025 -0.48217773 23.96508789 C-0.5356778 22.03176791 -0.59101308 20.09849784 -0.64819336 18.1652832 C-0.72988175 15.39285041 -0.80505352 12.62030742 -0.87890625 9.84765625 C-0.90594131 8.97786636 -0.93297638 8.10807648 -0.96083069 7.21192932 C-1.01278164 5.14189685 -1.01188571 3.07065016 -1 1 C-0.67 0.67 -0.34 0.34 0 0 Z " fill="#3D4B61" transform="translate(410,129)"/>
<path d="M0 0 C3.63 0 7.26 0 11 0 C11 8.91 11 17.82 11 27 C9.18663105 23.3732621 8.73265305 22.04897933 8.5859375 18.234375 C8.54726563 17.34492188 8.50859375 16.45546875 8.46875 15.5390625 C8.4378125 14.61867187 8.406875 13.69828125 8.375 12.75 C8.33632813 11.81414062 8.29765625 10.87828125 8.2578125 9.9140625 C8.16375156 7.60956946 8.07810601 5.30507987 8 3 C5.36 2.67 2.72 2.34 0 2 C0 1.34 0 0.68 0 0 Z " fill="#223B4E" transform="translate(252,129)"/>
<path d="M0 0 C0.99 0.33 1.98 0.66 3 1 C3 7.93 3 14.86 3 22 C1.35 22.33 -0.3 22.66 -2 23 C-1.505 21.515 -1.505 21.515 -1 20 C-0.93102656 18.61484095 -0.91533007 17.22654178 -0.9375 15.83984375 C-0.94523438 15.04642578 -0.95296875 14.25300781 -0.9609375 13.43554688 C-0.97382812 12.61119141 -0.98671875 11.78683594 -1 10.9375 C-1.0254732 9.30084689 -1.04651849 7.66411707 -1.0625 6.02734375 C-1.07410156 5.30281006 -1.08570313 4.57827637 -1.09765625 3.83178711 C-1 2 -1 2 0 0 Z " fill="#4C6072" transform="translate(634,134)"/>
<path d="M0 0 C2.83203125 0.03255208 5.6640625 0.06510417 8.49609375 0.09765625 C7.83609375 4.05765625 7.17609375 8.01765625 6.49609375 12.09765625 C4.49609375 10.09765625 4.49609375 10.09765625 4.24609375 7.09765625 C4.49609375 4.09765625 4.49609375 4.09765625 6.49609375 2.09765625 C3.85609375 2.09765625 1.21609375 2.09765625 -1.50390625 2.09765625 C-1.83390625 4.40765625 -2.16390625 6.71765625 -2.50390625 9.09765625 C-3.16390625 9.09765625 -3.82390625 9.09765625 -4.50390625 9.09765625 C-3.50825862 0.13682756 -3.50825862 0.13682756 0 0 Z " fill="#445563" transform="translate(237.50390625,115.90234375)"/>
<path d="M0 0 C0 3.75773676 -1.16976809 5.74625438 -3 9 C-3.515625 9.45375 -4.03125 9.9075 -4.5625 10.375 C-6.26142522 12.29552417 -6.4221481 13.5136531 -6.9375 16 C-7.58684043 19.01915551 -7.79176577 19.80401484 -10.125 22 C-10.74375 22.33 -11.3625 22.66 -12 23 C-12.66 22.67 -13.32 22.34 -14 22 C-12.61198216 19.45378863 -11.21497447 16.91323431 -9.8125 14.375 C-9.42513672 13.66214844 -9.03777344 12.94929688 -8.63867188 12.21484375 C-6.13546915 7.70494131 -3.4262812 3.85836995 0 0 Z " fill="#49A687" transform="translate(148,105)"/>
<path d="M0 0 C0.33 0 0.66 0 1 0 C1.3125 3.25 1.3125 3.25 1 7 C-1.3125 9 -1.3125 9 -4 11 C-5.27119355 13.28417591 -6.09839062 15.53243748 -7 18 C-7.66 18 -8.32 18 -9 18 C-9 18.99 -9 19.98 -9 21 C-9.66 21 -10.32 21 -11 21 C-9.66959987 17.42892597 -8.07110473 14.29773358 -6.0625 11.0625 C-3.84839123 7.44088932 -1.81636876 3.83455628 0 0 Z " fill="#D2F6E5" transform="translate(151,170)"/>
<path d="M0 0 C0.66 0.33 1.32 0.66 2 1 C2.62790698 9.1627907 2.62790698 9.1627907 0.125 12.5 C-3.72338104 15.21650426 -6.307758 15.08689337 -11 15 C-11.33 14.34 -11.66 13.68 -12 13 C-6.555 12.505 -6.555 12.505 -1 12 C-1 11.34 -1 10.68 -1 10 C-1.66 10 -2.32 10 -3 10 C-3 9.34 -3 8.68 -3 8 C-2.01 8 -1.02 8 0 8 C0 5.36 0 2.72 0 0 Z " fill="#405967" transform="translate(364,152)"/>
<path d="M0 0 C1.0169313 2.65498232 1.13022151 3.69155375 0.00390625 6.359375 C-0.47175781 7.14828125 -0.94742188 7.9371875 -1.4375 8.75 C-1.91058594 9.54921875 -2.38367188 10.3484375 -2.87109375 11.171875 C-3.24363281 11.77515625 -3.61617187 12.3784375 -4 13 C-4.66 13 -5.32 13 -6 13 C-5.896875 13.9075 -5.79375 14.815 -5.6875 15.75 C-6 19 -6 19 -8.5 21.375 C-9.325 21.91125 -10.15 22.4475 -11 23 C-11 19.42579934 -10.06049227 17.96590825 -8.3125 14.875 C-7.76980469 13.90691406 -7.22710937 12.93882813 -6.66796875 11.94140625 C-6.11753906 10.97074219 -5.56710938 10.00007813 -5 9 C-4.04031842 7.27158124 -3.08184203 5.54249233 -2.125 3.8125 C-1.4171122 2.54141844 -0.70896103 1.27048327 0 0 Z " fill="#49A385" transform="translate(170,64)"/>
<path d="M0 0 C1.98 0.66 3.96 1.32 6 2 C5.34 4.31 4.68 6.62 4 9 C1.69 8.34 -0.62 7.68 -3 7 C-2.01 4.69 -1.02 2.38 0 0 Z " fill="#354B5C" transform="translate(453,130)"/>
<path d="M0 0 C10.56 0 21.12 0 32 0 C31.34 1.32 30.68 2.64 30 4 C29.34 3.34 28.68 2.68 28 2 C25.08811755 1.62731113 25.08811755 1.62731113 21.6796875 1.5859375 C20.42285156 1.54726563 19.16601562 1.50859375 17.87109375 1.46875 C16.55238281 1.4378125 15.23367187 1.406875 13.875 1.375 C12.53513082 1.33681971 11.19528617 1.29776794 9.85546875 1.2578125 C6.57045381 1.1632797 3.28544862 1.07772844 0 1 C0 0.67 0 0.34 0 0 Z " fill="#264C62" transform="translate(152,41)"/>
<path d="M0 0 C0.33 0 0.66 0 1 0 C1.31523361 4.01922848 1.38044558 6.35183346 -0.6875 9.875 C-3.21360261 12.19628348 -4.62765029 12.71897086 -8 13 C-6.12200625 10.18300938 -4.21421421 7.56018518 -2 5 C-1.34 5 -0.68 5 0 5 C0 3.35 0 1.7 0 0 Z " fill="#2B3F55" transform="translate(591,152)"/>
<path d="M0 0 C0.90492188 0.02320313 1.80984375 0.04640625 2.7421875 0.0703125 C4.10730469 0.09738281 4.10730469 0.09738281 5.5 0.125 C6.19867187 0.14820313 6.89734375 0.17140625 7.6171875 0.1953125 C7.6171875 2.5053125 7.6171875 4.8153125 7.6171875 7.1953125 C7.2871875 7.1953125 6.9571875 7.1953125 6.6171875 7.1953125 C6.6171875 5.2153125 6.6171875 3.2353125 6.6171875 1.1953125 C2.00975885 2.40575382 2.00975885 2.40575382 -2.3828125 4.1953125 C-2.7128125 5.1853125 -3.0428125 6.1753125 -3.3828125 7.1953125 C-3.7128125 7.1953125 -4.0428125 7.1953125 -4.3828125 7.1953125 C-4.5078125 4.8203125 -4.5078125 4.8203125 -4.3828125 2.1953125 C-2.3828125 0.1953125 -2.3828125 0.1953125 0 0 Z " fill="#BFD1DA" transform="translate(527.3828125,150.8046875)"/>
<path d="M0 0 C0 0.33 0 0.66 0 1 C-3.3125 2.125 -3.3125 2.125 -7 3 C-7.99 2.34 -8.98 1.68 -10 1 C-11.9896995 0.60986284 -13.99019869 0.26797351 -16 0 C-16 -0.33 -16 -0.66 -16 -1 C-10.15659442 -2.24327778 -5.73303505 -1.57300962 0 0 Z " fill="#4E5C6F" transform="translate(541,160)"/>
<path d="M0 0 C0.66 0 1.32 0 2 0 C2.33773437 0.61488281 2.67546875 1.22976562 3.0234375 1.86328125 C3.46945313 2.67152344 3.91546875 3.47976562 4.375 4.3125 C4.81585938 5.11300781 5.25671875 5.91351563 5.7109375 6.73828125 C6.73513335 8.53527943 7.85267138 10.27900708 9 12 C8.625 14.1875 8.625 14.1875 8 16 C6.66141476 13.71125827 5.32898986 11.41930344 4 9.125 C3.6184375 8.47402344 3.236875 7.82304687 2.84375 7.15234375 C0 2.2265625 0 2.2265625 0 0 Z " fill="#265558" transform="translate(110,127)"/>
<path d="M0 0 C-1.98 0.99 -1.98 0.99 -4 2 C-4 2.66 -4 3.32 -4 4 C-4.639375 4.12375 -5.27875 4.2475 -5.9375 4.375 C-6.9584375 4.684375 -6.9584375 4.684375 -8 5 C-8.33 5.66 -8.66 6.32 -9 7 C-9.66 7 -10.32 7 -11 7 C-11.33 6.01 -11.66 5.02 -12 4 C-7.99899414 0.12023674 -5.51903037 -0.43286513 0 0 Z " fill="#4E5F71" transform="translate(629,128)"/>
<path d="M0 0 C0.33 0 0.66 0 1 0 C1.08121924 1.60332791 1.13929134 3.20784026 1.1875 4.8125 C1.23970703 6.15248047 1.23970703 6.15248047 1.29296875 7.51953125 C0.95081002 10.41647515 0.24606427 11.22555028 -2 13 C-2.19294408 8.17639811 -1.75747614 4.50353262 0 0 Z " fill="#294852" transform="translate(229,142)"/>
<path d="M0 0 C0.66 0 1.32 0 2 0 C2 2 2 4 2 6 C5.465 5.505 5.465 5.505 9 5 C9 5.66 9 6.32 9 7 C7.52168779 7.19412181 6.04230684 7.38012131 4.5625 7.5625 C3.73878906 7.66691406 2.91507812 7.77132812 2.06640625 7.87890625 C1.38449219 7.91886719 0.70257813 7.95882812 0 8 C-1 7 -1 7 -1.125 4 C-1 1 -1 1 0 0 Z " fill="#274152" transform="translate(399,114)"/>
<path d="M0 0 C0.66 0.99 1.32 1.98 2 3 C1.01 4.485 1.01 4.485 0 6 C-0.66 6 -1.32 6 -2 6 C-2.2165625 7.175625 -2.2165625 7.175625 -2.4375 8.375 C-3 11 -3 11 -4 13 C-4.66 13 -5.32 13 -6 13 C-4.58707905 8.1725201 -2.57025846 4.2837641 0 0 Z " fill="#D6F5E9" transform="translate(221,49)"/>
<path d="M0 0 C0.66 0.33 1.32 0.66 2 1 C1.51917969 1.33644531 1.03835938 1.67289063 0.54296875 2.01953125 C-1.75609967 4.97048742 -1.56983952 8.08708942 -1.6875 11.6875 C-1.72166016 12.38939453 -1.75582031 13.09128906 -1.79101562 13.81445312 C-1.87329947 15.54241387 -1.9383324 17.27118072 -2 19 C-2.33 19 -2.66 19 -3 19 C-3.08071788 16.20775927 -3.14035408 13.41783434 -3.1875 10.625 C-3.21263672 9.8309375 -3.23777344 9.036875 -3.26367188 8.21875 C-3.29004405 6.14413852 -3.15486462 4.06899135 -3 2 C-2.01 1.34 -1.02 0.68 0 0 Z " fill="#DAE1ED" transform="translate(616,138)"/>
<path d="M0 0 C0.66 0 1.32 0 2 0 C5.22265625 5.2734375 5.22265625 5.2734375 6 7 C5.67 7.66 5.34 8.32 5 9 C2.5 6.75 2.5 6.75 0 4 C0 2.68 0 1.36 0 0 Z " fill="#4CA486" transform="translate(104,120)"/>
<path d="M0 0 C3.28465896 2.79196011 5.01321958 6.23196817 7 10 C7 10.66 7 11.32 7 12 C6.01 12 5.02 12 4 12 C3.3291288 10.3767313 2.66342971 8.75132422 2 7.125 C1.62875 6.22007813 1.2575 5.31515625 0.875 4.3828125 C0 2 0 2 0 0 Z " fill="#D4F7EA" transform="translate(23,52)"/>
<path d="M0 0 C0.66 0.99 1.32 1.98 2 3 C0.95125002 5.62187494 0.35068687 6.79371361 -2.125 8.25 C-2.74375 8.4975 -3.3625 8.745 -4 9 C-2.80100302 5.9168649 -1.52299523 2.93720508 0 0 Z " fill="#D2F5E7" transform="translate(170,137)"/>
<path d="M0 0 C0 0.66 0 1.32 0 2 C-5.41538462 5.07692308 -5.41538462 5.07692308 -8.375 4.6875 C-8.91125 4.460625 -9.4475 4.23375 -10 4 C-4.5 0 -4.5 0 0 0 Z " fill="#DDE5EA" transform="translate(540,161)"/>
<path d="M0 0 C0.66 0 1.32 0 2 0 C1.67 0.99 1.34 1.98 1 3 C-0.77049689 3.05410687 -2.54146849 3.09284119 -4.3125 3.125 C-5.79169922 3.15980469 -5.79169922 3.15980469 -7.30078125 3.1953125 C-10 3 -10 3 -13 1 C-11.71802734 1.01740234 -11.71802734 1.01740234 -10.41015625 1.03515625 C-8.75306641 1.04869141 -8.75306641 1.04869141 -7.0625 1.0625 C-5.40927734 1.07990234 -5.40927734 1.07990234 -3.72265625 1.09765625 C-1.08552366 1.31262571 -1.08552366 1.31262571 0 0 Z " fill="#C7D4E0" transform="translate(447,156)"/>
<path d="M0 0 C1.03348696 3.10046087 1.17755913 4.05610218 0 7 C-0.99 7.33 -1.98 7.66 -3 8 C-3.33 8.66 -3.66 9.32 -4 10 C-3.43454163 6.04179141 -2.19097652 3.3340947 0 0 Z " fill="#4DA785" transform="translate(127,139)"/>
<path d="M0 0 C0.66 0.66 1.32 1.32 2 2 C2.66 1.67 3.32 1.34 4 1 C3.67 2.98 3.34 4.96 3 7 C2.01 7 1.02 7 0 7 C0 4.69 0 2.38 0 0 Z " fill="#CEDCE3" transform="translate(569,129)"/>
<path d="M0 0 C0.66 0 1.32 0 2 0 C1.25 7.625 1.25 7.625 -1 11 C-1.125 3.375 -1.125 3.375 0 0 Z " fill="#283B52" transform="translate(241,126)"/>
<path d="M0 0 C2.31 0.33 4.62 0.66 7 1 C6.34 2.65 5.68 4.3 5 6 C4.34 6 3.68 6 3 6 C2.01 4.02 1.02 2.04 0 0 Z " fill="#D3E0E8" transform="translate(118,75)"/>
<path d="M0 0 C0.33 0 0.66 0 1 0 C1.1875 3.375 1.1875 3.375 1 7 C0.01 7.66 -0.98 8.32 -2 9 C-2.25 3.375 -2.25 3.375 0 0 Z " fill="#E1F7EB" transform="translate(151,170)"/>
<path d="M0 0 C0.66 0 1.32 0 2 0 C0.8141763 3.37503669 -0.27573689 5.64722731 -3 8 C-3.33 6.68 -3.66 5.36 -4 4 C-2.68 3.34 -1.36 2.68 0 2 C0 1.34 0 0.68 0 0 Z " fill="#51B188" transform="translate(213,60)"/>
<path d="M0 0 C0.33 1.32 0.66 2.64 1 4 C0.01 4.33 -0.98 4.66 -2 5 C-2.73323796 7.01508358 -2.73323796 7.01508358 -3 9 C-3.66 9 -4.32 9 -5 9 C-3.7508258 5.54074837 -2.32472205 2.85306797 0 0 Z " fill="#4AA185" transform="translate(176,55)"/>
</svg>
